%TF.GenerationSoftware,KiCad,Pcbnew,(6.0.6)*%
%TF.CreationDate,2022-12-21T22:14:54+09:00*%
%TF.ProjectId,SO2-GasSensor_DevelopmentKit_V1.0,534f322d-4761-4735-9365-6e736f725f44,rev?*%
%TF.SameCoordinates,Original*%
%TF.FileFunction,Soldermask,Top*%
%TF.FilePolarity,Negative*%
%FSLAX46Y46*%
G04 Gerber Fmt 4.6, Leading zero omitted, Abs format (unit mm)*
G04 Created by KiCad (PCBNEW (6.0.6)) date 2022-12-21 22:14:54*
%MOMM*%
%LPD*%
G01*
G04 APERTURE LIST*
G04 Aperture macros list*
%AMRoundRect*
0 Rectangle with rounded corners*
0 $1 Rounding radius*
0 $2 $3 $4 $5 $6 $7 $8 $9 X,Y pos of 4 corners*
0 Add a 4 corners polygon primitive as box body*
4,1,4,$2,$3,$4,$5,$6,$7,$8,$9,$2,$3,0*
0 Add four circle primitives for the rounded corners*
1,1,$1+$1,$2,$3*
1,1,$1+$1,$4,$5*
1,1,$1+$1,$6,$7*
1,1,$1+$1,$8,$9*
0 Add four rect primitives between the rounded corners*
20,1,$1+$1,$2,$3,$4,$5,0*
20,1,$1+$1,$4,$5,$6,$7,0*
20,1,$1+$1,$6,$7,$8,$9,0*
20,1,$1+$1,$8,$9,$2,$3,0*%
G04 Aperture macros list end*
%ADD10R,1.500000X2.200000*%
%ADD11R,3.800000X2.200000*%
%ADD12RoundRect,0.140000X-0.140000X-0.170000X0.140000X-0.170000X0.140000X0.170000X-0.140000X0.170000X0*%
%ADD13R,2.100000X2.100000*%
%ADD14C,2.100000*%
%ADD15RoundRect,0.250000X0.450000X-0.262500X0.450000X0.262500X-0.450000X0.262500X-0.450000X-0.262500X0*%
%ADD16RoundRect,0.243750X0.456250X-0.243750X0.456250X0.243750X-0.456250X0.243750X-0.456250X-0.243750X0*%
%ADD17RoundRect,0.250000X-0.475000X0.250000X-0.475000X-0.250000X0.475000X-0.250000X0.475000X0.250000X0*%
%ADD18RoundRect,0.140000X0.140000X0.170000X-0.140000X0.170000X-0.140000X-0.170000X0.140000X-0.170000X0*%
%ADD19RoundRect,0.250000X0.250000X0.475000X-0.250000X0.475000X-0.250000X-0.475000X0.250000X-0.475000X0*%
%ADD20R,1.700000X1.700000*%
%ADD21O,1.700000X1.700000*%
%ADD22C,0.800000*%
%ADD23C,7.000000*%
%ADD24RoundRect,0.250000X-0.450000X0.262500X-0.450000X-0.262500X0.450000X-0.262500X0.450000X0.262500X0*%
%ADD25RoundRect,0.250000X0.262500X0.450000X-0.262500X0.450000X-0.262500X-0.450000X0.262500X-0.450000X0*%
%ADD26RoundRect,0.250000X-0.262500X-0.450000X0.262500X-0.450000X0.262500X0.450000X-0.262500X0.450000X0*%
%ADD27RoundRect,0.070000X0.650000X0.300000X-0.650000X0.300000X-0.650000X-0.300000X0.650000X-0.300000X0*%
%ADD28R,1.200000X1.400000*%
%ADD29R,1.600000X1.600000*%
%ADD30C,1.600000*%
%ADD31C,0.500000*%
%ADD32RoundRect,0.243750X-0.456250X0.243750X-0.456250X-0.243750X0.456250X-0.243750X0.456250X0.243750X0*%
%ADD33C,1.500000*%
%ADD34R,1.600000X0.550000*%
%ADD35R,0.550000X1.600000*%
%ADD36R,1.550000X1.550000*%
%ADD37C,1.550000*%
%ADD38R,2.500000X1.800000*%
%ADD39R,1.700000X1.000000*%
%ADD40RoundRect,0.250000X0.625000X-0.375000X0.625000X0.375000X-0.625000X0.375000X-0.625000X-0.375000X0*%
%ADD41RoundRect,0.250000X0.475000X-0.250000X0.475000X0.250000X-0.475000X0.250000X-0.475000X-0.250000X0*%
%ADD42R,2.000000X2.000000*%
%ADD43C,2.000000*%
G04 APERTURE END LIST*
D10*
%TO.C,U1*%
X33700000Y-147950000D03*
X31400000Y-147950000D03*
X29100000Y-147950000D03*
D11*
X31400000Y-154250000D03*
%TD*%
D12*
%TO.C,C6*%
X66020000Y-147150000D03*
X66980000Y-147150000D03*
%TD*%
D13*
%TO.C,J5*%
X67960000Y-124900000D03*
D14*
X70500000Y-124900000D03*
X73040000Y-124900000D03*
%TD*%
D15*
%TO.C,R6*%
X69100000Y-155362500D03*
X69100000Y-153537500D03*
%TD*%
D16*
%TO.C,D4*%
X71100000Y-155367500D03*
X71100000Y-153492500D03*
%TD*%
D17*
%TO.C,C10*%
X46700000Y-153500000D03*
X46700000Y-155400000D03*
%TD*%
D18*
%TO.C,C8*%
X53500000Y-148050000D03*
X52540000Y-148050000D03*
%TD*%
D19*
%TO.C,C17*%
X82700000Y-137500000D03*
X80800000Y-137500000D03*
%TD*%
D15*
%TO.C,R7*%
X67200000Y-134312500D03*
X67200000Y-132487500D03*
%TD*%
D20*
%TO.C,J1*%
X54300000Y-163400000D03*
D21*
X54300000Y-165940000D03*
X51760000Y-163400000D03*
X51760000Y-165940000D03*
X49220000Y-163400000D03*
X49220000Y-165940000D03*
X46680000Y-163400000D03*
X46680000Y-165940000D03*
X44140000Y-163400000D03*
X44140000Y-165940000D03*
%TD*%
D22*
%TO.C,H4*%
X89143845Y-120643845D03*
D23*
X91000000Y-122500000D03*
D22*
X92856155Y-120643845D03*
X88375000Y-122500000D03*
X93625000Y-122500000D03*
X92856155Y-124356155D03*
X89143845Y-124356155D03*
X91000000Y-125125000D03*
X91000000Y-119875000D03*
%TD*%
D13*
%TO.C,J4*%
X48920000Y-124900000D03*
D14*
X51460000Y-124900000D03*
X54000000Y-124900000D03*
X56540000Y-124900000D03*
X59080000Y-124900000D03*
X61620000Y-124900000D03*
%TD*%
D24*
%TO.C,R1*%
X32000000Y-131537500D03*
X32000000Y-133362500D03*
%TD*%
D25*
%TO.C,R9*%
X40162500Y-101000000D03*
X38337500Y-101000000D03*
%TD*%
D20*
%TO.C,J9*%
X67840000Y-108200000D03*
D21*
X67840000Y-110740000D03*
X65300000Y-108200000D03*
X65300000Y-110740000D03*
X62760000Y-108200000D03*
X62760000Y-110740000D03*
X60220000Y-108200000D03*
X60220000Y-110740000D03*
X57680000Y-108200000D03*
X57680000Y-110740000D03*
%TD*%
D22*
%TO.C,H1*%
X31000000Y-119875000D03*
X33625000Y-122500000D03*
X29143845Y-120643845D03*
X32856155Y-120643845D03*
X32856155Y-124356155D03*
X31000000Y-125125000D03*
D23*
X31000000Y-122500000D03*
D22*
X28375000Y-122500000D03*
X29143845Y-124356155D03*
%TD*%
D26*
%TO.C,R8*%
X64087500Y-102500000D03*
X65912500Y-102500000D03*
%TD*%
D27*
%TO.C,Q1*%
X61300000Y-103450000D03*
X61300000Y-101550000D03*
X59200000Y-102500000D03*
%TD*%
D17*
%TO.C,C2*%
X35200000Y-142250000D03*
X35200000Y-144150000D03*
%TD*%
D28*
%TO.C,Y1*%
X48850000Y-153350000D03*
X48850000Y-155550000D03*
X50550000Y-155550000D03*
X50550000Y-153350000D03*
%TD*%
D17*
%TO.C,C12*%
X75200000Y-132450000D03*
X75200000Y-134350000D03*
%TD*%
D29*
%TO.C,C3*%
X30700000Y-158100000D03*
D30*
X30700000Y-160100000D03*
%TD*%
D12*
%TO.C,C9*%
X66020000Y-148750000D03*
X66980000Y-148750000D03*
%TD*%
D19*
%TO.C,C16*%
X82700000Y-144500000D03*
X80800000Y-144500000D03*
%TD*%
D31*
%TO.C,mouse-bite-2mm-slot*%
X79510000Y-118000000D03*
X78760000Y-118000000D03*
X79510000Y-116500000D03*
X78010000Y-118000000D03*
X78010000Y-116500000D03*
X78760000Y-116500000D03*
%TD*%
D13*
%TO.C,J2*%
X39750000Y-124900000D03*
D14*
X42290000Y-124900000D03*
%TD*%
D18*
%TO.C,C7*%
X53500000Y-146200000D03*
X52540000Y-146200000D03*
%TD*%
D32*
%TO.C,D2*%
X34100000Y-131532500D03*
X34100000Y-133407500D03*
%TD*%
D33*
%TO.C,TP3*%
X41000000Y-132400000D03*
%TD*%
D20*
%TO.C,J6*%
X77150000Y-163410000D03*
D21*
X77150000Y-165950000D03*
X74610000Y-163410000D03*
X74610000Y-165950000D03*
X72070000Y-163410000D03*
X72070000Y-165950000D03*
X69530000Y-163410000D03*
X69530000Y-165950000D03*
X66990000Y-163410000D03*
X66990000Y-165950000D03*
%TD*%
D17*
%TO.C,C4*%
X35200000Y-158250000D03*
X35200000Y-160150000D03*
%TD*%
D15*
%TO.C,R3*%
X73200000Y-134312500D03*
X73200000Y-132487500D03*
%TD*%
D31*
%TO.C,mouse-bite-2mm-slot*%
X42510000Y-118000000D03*
X43260000Y-116500000D03*
X43260000Y-118000000D03*
X44010000Y-118000000D03*
X44010000Y-116500000D03*
X42510000Y-116500000D03*
%TD*%
D15*
%TO.C,R2*%
X75200000Y-155362500D03*
X75200000Y-153537500D03*
%TD*%
D13*
%TO.C,J7*%
X88250000Y-132150000D03*
D14*
X88250000Y-134690000D03*
X88250000Y-137230000D03*
X88250000Y-139770000D03*
X88250000Y-142310000D03*
X88250000Y-144850000D03*
%TD*%
D34*
%TO.C,U2*%
X55550000Y-143950000D03*
X55550000Y-144750000D03*
X55550000Y-145550000D03*
X55550000Y-146350000D03*
X55550000Y-147150000D03*
X55550000Y-147950000D03*
X55550000Y-148750000D03*
X55550000Y-149550000D03*
D35*
X57000000Y-151000000D03*
X57800000Y-151000000D03*
X58600000Y-151000000D03*
X59400000Y-151000000D03*
X60200000Y-151000000D03*
X61000000Y-151000000D03*
X61800000Y-151000000D03*
X62600000Y-151000000D03*
D34*
X64050000Y-149550000D03*
X64050000Y-148750000D03*
X64050000Y-147950000D03*
X64050000Y-147150000D03*
X64050000Y-146350000D03*
X64050000Y-145550000D03*
X64050000Y-144750000D03*
X64050000Y-143950000D03*
D35*
X62600000Y-142500000D03*
X61800000Y-142500000D03*
X61000000Y-142500000D03*
X60200000Y-142500000D03*
X59400000Y-142500000D03*
X58600000Y-142500000D03*
X57800000Y-142500000D03*
X57000000Y-142500000D03*
%TD*%
D36*
%TO.C,RV1*%
X82250000Y-110090000D03*
D37*
X79750000Y-107590000D03*
X77250000Y-110090000D03*
%TD*%
D38*
%TO.C,D1*%
X33600000Y-136950000D03*
X29600000Y-136950000D03*
%TD*%
D19*
%TO.C,C14*%
X82700000Y-139500000D03*
X80800000Y-139500000D03*
%TD*%
D33*
%TO.C,TP1*%
X43900000Y-132400000D03*
%TD*%
D19*
%TO.C,C15*%
X82700000Y-134500000D03*
X80800000Y-134500000D03*
%TD*%
D13*
%TO.C,J8*%
X88250000Y-150685000D03*
D14*
X88250000Y-153225000D03*
X88250000Y-155765000D03*
X88250000Y-158305000D03*
%TD*%
D39*
%TO.C,S1*%
X56650000Y-133100000D03*
X62950000Y-133100000D03*
X56650000Y-136900000D03*
X62950000Y-136900000D03*
%TD*%
D20*
%TO.C,J10*%
X79810000Y-97500000D03*
D21*
X77270000Y-97500000D03*
X74730000Y-97500000D03*
X72190000Y-97500000D03*
X69650000Y-97500000D03*
X67110000Y-97500000D03*
X64570000Y-97500000D03*
X62030000Y-97500000D03*
X59490000Y-97500000D03*
X56950000Y-97500000D03*
X54410000Y-97500000D03*
X51870000Y-97500000D03*
X49330000Y-97500000D03*
X46790000Y-97500000D03*
X44250000Y-97500000D03*
X41710000Y-97500000D03*
%TD*%
D40*
%TO.C,F1*%
X29300000Y-133850000D03*
X29300000Y-131050000D03*
%TD*%
D41*
%TO.C,C11*%
X52700000Y-155400000D03*
X52700000Y-153500000D03*
%TD*%
D29*
%TO.C,C1*%
X30700000Y-142200000D03*
D30*
X30700000Y-144200000D03*
%TD*%
D42*
%TO.C,BZ1*%
X40450000Y-108500000D03*
D43*
X48050000Y-108500000D03*
%TD*%
D16*
%TO.C,D3*%
X73200000Y-155367500D03*
X73200000Y-153492500D03*
%TD*%
D22*
%TO.C,H2*%
X29143845Y-169356155D03*
X31000000Y-164875000D03*
X28375000Y-167500000D03*
X31000000Y-170125000D03*
X29143845Y-165643845D03*
X32856155Y-165643845D03*
X32856155Y-169356155D03*
X33625000Y-167500000D03*
D23*
X31000000Y-167500000D03*
%TD*%
D17*
%TO.C,C5*%
X37200000Y-158250000D03*
X37200000Y-160150000D03*
%TD*%
D24*
%TO.C,R4*%
X71200000Y-132487500D03*
X71200000Y-134312500D03*
%TD*%
D33*
%TO.C,TP2*%
X38150000Y-132400000D03*
%TD*%
D15*
%TO.C,R5*%
X69200000Y-134312500D03*
X69200000Y-132487500D03*
%TD*%
D23*
%TO.C,H3*%
X91000000Y-167500000D03*
D22*
X88375000Y-167500000D03*
X92856155Y-169356155D03*
X89143845Y-165643845D03*
X92856155Y-165643845D03*
X91000000Y-164875000D03*
X89143845Y-169356155D03*
X93625000Y-167500000D03*
X91000000Y-170125000D03*
%TD*%
D19*
%TO.C,C13*%
X82700000Y-142500000D03*
X80800000Y-142500000D03*
%TD*%
%TO.C,C18*%
X82700000Y-132500000D03*
X80800000Y-132500000D03*
%TD*%
D13*
%TO.C,J3*%
X79730000Y-124900000D03*
D14*
X82270000Y-124900000D03*
%TD*%
M02*
