%TF.GenerationSoftware,KiCad,Pcbnew,(6.0.6)*%
%TF.CreationDate,2022-12-21T22:14:54+09:00*%
%TF.ProjectId,SO2-GasSensor_DevelopmentKit_V1.0,534f322d-4761-4735-9365-6e736f725f44,rev?*%
%TF.SameCoordinates,Original*%
%TF.FileFunction,Profile,NP*%
%FSLAX46Y46*%
G04 Gerber Fmt 4.6, Leading zero omitted, Abs format (unit mm)*
G04 Created by KiCad (PCBNEW (6.0.6)) date 2022-12-21 22:14:54*
%MOMM*%
%LPD*%
G01*
G04 APERTURE LIST*
%TA.AperFunction,Profile*%
%ADD10C,0.050000*%
%TD*%
%TA.AperFunction,Profile*%
%ADD11C,0.150000*%
%TD*%
G04 APERTURE END LIST*
D10*
X95250000Y-118250000D02*
X80775000Y-118250000D01*
X80750000Y-116249688D02*
X85000000Y-116250000D01*
X74475000Y-116250000D02*
X62975000Y-116249688D01*
X41250000Y-118250000D02*
X26750000Y-118250000D01*
X36500000Y-116000000D02*
X36500000Y-116250000D01*
X85000000Y-95000000D02*
X36500000Y-95000000D01*
X47475000Y-118249999D02*
X45275234Y-118250312D01*
D11*
X87976000Y-163900000D02*
G75*
G03*
X87976000Y-163900000I-576000J0D01*
G01*
D10*
X41250000Y-118250000D02*
G75*
G03*
X41250000Y-116250000I0J1000000D01*
G01*
X26750000Y-171750000D02*
X95250000Y-171750000D01*
X45250234Y-116249995D02*
G75*
G03*
X45275234Y-118250312I-4J-1000315D01*
G01*
D11*
X35176000Y-126100000D02*
G75*
G03*
X35176000Y-126100000I-576000J0D01*
G01*
D10*
X47550062Y-116248440D02*
X45250234Y-116250000D01*
X85000000Y-116250000D02*
X85000000Y-95000000D01*
X41250000Y-116250000D02*
X36500000Y-116250000D01*
X76725086Y-118249687D02*
G75*
G03*
X76750078Y-116250000I25014J999687D01*
G01*
X76725086Y-118249688D02*
X74450000Y-118250000D01*
X95250000Y-171750000D02*
X95250000Y-118250000D01*
X62975000Y-116249688D02*
X47550062Y-116248440D01*
X26750000Y-171750000D02*
X26750000Y-118250000D01*
X80750000Y-116249688D02*
G75*
G03*
X80775000Y-118250000I0J-1000312D01*
G01*
X76750078Y-116250000D02*
X74475000Y-116250000D01*
X74450000Y-118250000D02*
X63000000Y-118250000D01*
X36500000Y-95000000D02*
X36500000Y-116000000D01*
X63000000Y-118250000D02*
X47475000Y-118249999D01*
M02*
