%TF.GenerationSoftware,KiCad,Pcbnew,(6.0.6)*%
%TF.CreationDate,2022-12-21T22:14:54+09:00*%
%TF.ProjectId,SO2-GasSensor_DevelopmentKit_V1.0,534f322d-4761-4735-9365-6e736f725f44,rev?*%
%TF.SameCoordinates,Original*%
%TF.FileFunction,Paste,Top*%
%TF.FilePolarity,Positive*%
%FSLAX46Y46*%
G04 Gerber Fmt 4.6, Leading zero omitted, Abs format (unit mm)*
G04 Created by KiCad (PCBNEW (6.0.6)) date 2022-12-21 22:14:54*
%MOMM*%
%LPD*%
G01*
G04 APERTURE LIST*
G04 Aperture macros list*
%AMRoundRect*
0 Rectangle with rounded corners*
0 $1 Rounding radius*
0 $2 $3 $4 $5 $6 $7 $8 $9 X,Y pos of 4 corners*
0 Add a 4 corners polygon primitive as box body*
4,1,4,$2,$3,$4,$5,$6,$7,$8,$9,$2,$3,0*
0 Add four circle primitives for the rounded corners*
1,1,$1+$1,$2,$3*
1,1,$1+$1,$4,$5*
1,1,$1+$1,$6,$7*
1,1,$1+$1,$8,$9*
0 Add four rect primitives between the rounded corners*
20,1,$1+$1,$2,$3,$4,$5,0*
20,1,$1+$1,$4,$5,$6,$7,0*
20,1,$1+$1,$6,$7,$8,$9,0*
20,1,$1+$1,$8,$9,$2,$3,0*%
G04 Aperture macros list end*
%ADD10R,1.500000X2.200000*%
%ADD11R,3.800000X2.200000*%
%ADD12RoundRect,0.140000X-0.140000X-0.170000X0.140000X-0.170000X0.140000X0.170000X-0.140000X0.170000X0*%
%ADD13RoundRect,0.250000X0.450000X-0.262500X0.450000X0.262500X-0.450000X0.262500X-0.450000X-0.262500X0*%
%ADD14RoundRect,0.243750X0.456250X-0.243750X0.456250X0.243750X-0.456250X0.243750X-0.456250X-0.243750X0*%
%ADD15RoundRect,0.250000X-0.475000X0.250000X-0.475000X-0.250000X0.475000X-0.250000X0.475000X0.250000X0*%
%ADD16RoundRect,0.140000X0.140000X0.170000X-0.140000X0.170000X-0.140000X-0.170000X0.140000X-0.170000X0*%
%ADD17RoundRect,0.250000X0.250000X0.475000X-0.250000X0.475000X-0.250000X-0.475000X0.250000X-0.475000X0*%
%ADD18RoundRect,0.250000X-0.450000X0.262500X-0.450000X-0.262500X0.450000X-0.262500X0.450000X0.262500X0*%
%ADD19RoundRect,0.250000X0.262500X0.450000X-0.262500X0.450000X-0.262500X-0.450000X0.262500X-0.450000X0*%
%ADD20RoundRect,0.250000X-0.262500X-0.450000X0.262500X-0.450000X0.262500X0.450000X-0.262500X0.450000X0*%
%ADD21R,1.300000X0.600000*%
%ADD22R,1.200000X1.400000*%
%ADD23RoundRect,0.243750X-0.456250X0.243750X-0.456250X-0.243750X0.456250X-0.243750X0.456250X0.243750X0*%
%ADD24R,1.600000X0.550000*%
%ADD25R,0.550000X1.600000*%
%ADD26R,2.500000X1.800000*%
%ADD27R,1.700000X1.000000*%
%ADD28RoundRect,0.250000X0.625000X-0.375000X0.625000X0.375000X-0.625000X0.375000X-0.625000X-0.375000X0*%
%ADD29RoundRect,0.250000X0.475000X-0.250000X0.475000X0.250000X-0.475000X0.250000X-0.475000X-0.250000X0*%
G04 APERTURE END LIST*
D10*
%TO.C,U1*%
X33700000Y-147950000D03*
X31400000Y-147950000D03*
X29100000Y-147950000D03*
D11*
X31400000Y-154250000D03*
%TD*%
D12*
%TO.C,C6*%
X66020000Y-147150000D03*
X66980000Y-147150000D03*
%TD*%
D13*
%TO.C,R6*%
X69100000Y-155362500D03*
X69100000Y-153537500D03*
%TD*%
D14*
%TO.C,D4*%
X71100000Y-155367500D03*
X71100000Y-153492500D03*
%TD*%
D15*
%TO.C,C10*%
X46700000Y-153500000D03*
X46700000Y-155400000D03*
%TD*%
D16*
%TO.C,C8*%
X53500000Y-148050000D03*
X52540000Y-148050000D03*
%TD*%
D17*
%TO.C,C17*%
X82700000Y-137500000D03*
X80800000Y-137500000D03*
%TD*%
D13*
%TO.C,R7*%
X67200000Y-134312500D03*
X67200000Y-132487500D03*
%TD*%
D18*
%TO.C,R1*%
X32000000Y-131537500D03*
X32000000Y-133362500D03*
%TD*%
D19*
%TO.C,R9*%
X40162500Y-101000000D03*
X38337500Y-101000000D03*
%TD*%
D20*
%TO.C,R8*%
X64087500Y-102500000D03*
X65912500Y-102500000D03*
%TD*%
D21*
%TO.C,Q1*%
X61300000Y-103450000D03*
X61300000Y-101550000D03*
X59200000Y-102500000D03*
%TD*%
D15*
%TO.C,C2*%
X35200000Y-142250000D03*
X35200000Y-144150000D03*
%TD*%
D22*
%TO.C,Y1*%
X48850000Y-153350000D03*
X48850000Y-155550000D03*
X50550000Y-155550000D03*
X50550000Y-153350000D03*
%TD*%
D15*
%TO.C,C12*%
X75200000Y-132450000D03*
X75200000Y-134350000D03*
%TD*%
D12*
%TO.C,C9*%
X66020000Y-148750000D03*
X66980000Y-148750000D03*
%TD*%
D17*
%TO.C,C16*%
X82700000Y-144500000D03*
X80800000Y-144500000D03*
%TD*%
D16*
%TO.C,C7*%
X53500000Y-146200000D03*
X52540000Y-146200000D03*
%TD*%
D23*
%TO.C,D2*%
X34100000Y-131532500D03*
X34100000Y-133407500D03*
%TD*%
D15*
%TO.C,C4*%
X35200000Y-158250000D03*
X35200000Y-160150000D03*
%TD*%
D13*
%TO.C,R3*%
X73200000Y-134312500D03*
X73200000Y-132487500D03*
%TD*%
%TO.C,R2*%
X75200000Y-155362500D03*
X75200000Y-153537500D03*
%TD*%
D24*
%TO.C,U2*%
X55550000Y-143950000D03*
X55550000Y-144750000D03*
X55550000Y-145550000D03*
X55550000Y-146350000D03*
X55550000Y-147150000D03*
X55550000Y-147950000D03*
X55550000Y-148750000D03*
X55550000Y-149550000D03*
D25*
X57000000Y-151000000D03*
X57800000Y-151000000D03*
X58600000Y-151000000D03*
X59400000Y-151000000D03*
X60200000Y-151000000D03*
X61000000Y-151000000D03*
X61800000Y-151000000D03*
X62600000Y-151000000D03*
D24*
X64050000Y-149550000D03*
X64050000Y-148750000D03*
X64050000Y-147950000D03*
X64050000Y-147150000D03*
X64050000Y-146350000D03*
X64050000Y-145550000D03*
X64050000Y-144750000D03*
X64050000Y-143950000D03*
D25*
X62600000Y-142500000D03*
X61800000Y-142500000D03*
X61000000Y-142500000D03*
X60200000Y-142500000D03*
X59400000Y-142500000D03*
X58600000Y-142500000D03*
X57800000Y-142500000D03*
X57000000Y-142500000D03*
%TD*%
D26*
%TO.C,D1*%
X33600000Y-136950000D03*
X29600000Y-136950000D03*
%TD*%
D17*
%TO.C,C14*%
X82700000Y-139500000D03*
X80800000Y-139500000D03*
%TD*%
%TO.C,C15*%
X82700000Y-134500000D03*
X80800000Y-134500000D03*
%TD*%
D27*
%TO.C,S1*%
X56650000Y-133100000D03*
X62950000Y-133100000D03*
X56650000Y-136900000D03*
X62950000Y-136900000D03*
%TD*%
D28*
%TO.C,F1*%
X29300000Y-133850000D03*
X29300000Y-131050000D03*
%TD*%
D29*
%TO.C,C11*%
X52700000Y-155400000D03*
X52700000Y-153500000D03*
%TD*%
D14*
%TO.C,D3*%
X73200000Y-155367500D03*
X73200000Y-153492500D03*
%TD*%
D15*
%TO.C,C5*%
X37200000Y-158250000D03*
X37200000Y-160150000D03*
%TD*%
D18*
%TO.C,R4*%
X71200000Y-132487500D03*
X71200000Y-134312500D03*
%TD*%
D13*
%TO.C,R5*%
X69200000Y-134312500D03*
X69200000Y-132487500D03*
%TD*%
D17*
%TO.C,C13*%
X82700000Y-142500000D03*
X80800000Y-142500000D03*
%TD*%
%TO.C,C18*%
X82700000Y-132500000D03*
X80800000Y-132500000D03*
%TD*%
M02*
