M48
; DRILL file {KiCad (6.0.6)} date Wed Dec 21 22:15:04 2022
; FORMAT={3:3/ absolute / metric / suppress leading zeros}
; #@! TF.CreationDate,2022-12-21T22:15:04+09:00
; #@! TF.GenerationSoftware,Kicad,Pcbnew,(6.0.6)
; #@! TF.FileFunction,MixedPlating,1,4
FMAT,2
METRIC,TZ
; #@! TA.AperFunction,Plated,PTH,ViaDrill
T1C0.300
; #@! TA.AperFunction,Plated,PTH,ComponentDrill
T2C0.500
; #@! TA.AperFunction,Plated,PTH,ViaDrill
T3C0.700
; #@! TA.AperFunction,Plated,PTH,ComponentDrill
T4C0.800
; #@! TA.AperFunction,Plated,PTH,ComponentDrill
T5C1.000
; #@! TA.AperFunction,Plated,PTH,ComponentDrill
T6C1.100
; #@! TA.AperFunction,Plated,PTH,ComponentDrill
T7C3.500
; #@! TA.AperFunction,NonPlated,NPTH,ComponentDrill
T8C0.500
%
G90
G05
T1
X27400Y-153500
X27400Y-154350
X27400Y-155200
X27400Y-156050
X28250Y-153500
X28250Y-154350
X28250Y-155200
X28250Y-156050
X33925Y-160150
X34100Y-130300
X35200Y-145450
X35200Y-147100
X35200Y-147900
X35200Y-148700
X35200Y-161250
X35700Y-153500
X35700Y-154350
X35700Y-155200
X35700Y-156050
X35700Y-156900
X36000Y-147100
X36000Y-147900
X36000Y-148700
X36550Y-153500
X36550Y-154350
X36550Y-155200
X36550Y-156050
X36550Y-156900
X36750Y-144150
X36800Y-147100
X36800Y-147900
X36800Y-148700
X37200Y-161250
X37400Y-153500
X37400Y-154350
X37400Y-155200
X37400Y-156050
X37400Y-156900
X37600Y-147100
X37600Y-147900
X37600Y-148700
X38475Y-160125
X41000Y-134200
X45775Y-132400
X46350Y-156450
X47150Y-156450
X47375Y-104765
X48850Y-156850
X50500Y-152050
X52300Y-152450
X52550Y-145300
X52550Y-147100
X53100Y-152450
X53500Y-145300
X53500Y-147100
X56950Y-159000
X57000Y-156900
X57075Y-146150
X57075Y-147150
X57830Y-156080
X57850Y-159000
X58000Y-136900
X58100Y-147400
X58600Y-155200
X58600Y-157325
X59200Y-101360
X59400Y-154350
X59400Y-156500
X59450Y-148750
X60100Y-145400
X60700Y-144525
X60900Y-149150
X60925Y-146150
X61000Y-140675
X61300Y-99900
X61600Y-136900
X62100Y-147975
X62100Y-149100
X62525Y-146350
X65100Y-134200
X65650Y-158225
X66025Y-149675
X66025Y-150625
X66975Y-146225
X66975Y-149675
X66975Y-150625
X67200Y-135500
X68000Y-142300
X69200Y-135500
X69900Y-158240
X70480Y-137230
X72150Y-156625
X73200Y-135500
X75200Y-135500
X75200Y-156525
X78225Y-151975
X78225Y-154250
X79900Y-136000
X79900Y-141000
X80800Y-131100
X80800Y-136000
X80800Y-140990
X80800Y-145900
T2
X28375Y-122500
X28375Y-167500
X29144Y-120644
X29144Y-124356
X29144Y-165644
X29144Y-169356
X31000Y-119875
X31000Y-125125
X31000Y-164875
X31000Y-170125
X32856Y-120644
X32856Y-124356
X32856Y-165644
X32856Y-169356
X33625Y-122500
X33625Y-167500
X88375Y-122500
X88375Y-167500
X89144Y-120644
X89144Y-124356
X89144Y-165644
X89144Y-169356
X91000Y-119875
X91000Y-125125
X91000Y-164875
X91000Y-170125
X92856Y-120644
X92856Y-124356
X92856Y-165644
X92856Y-169356
X93625Y-122500
X93625Y-167500
T3
X28600Y-150600
X28600Y-151700
X29700Y-150600
X29700Y-151700
X33100Y-150600
X33100Y-151700
X34200Y-150600
X34200Y-151700
T4
X30700Y-142200
X30700Y-144200
X30700Y-158100
X30700Y-160100
T5
X40450Y-108500
X41710Y-97500
X44140Y-163400
X44140Y-165940
X44250Y-97500
X46680Y-163400
X46680Y-165940
X46790Y-97500
X48050Y-108500
X49220Y-163400
X49220Y-165940
X49330Y-97500
X51760Y-163400
X51760Y-165940
X51870Y-97500
X54300Y-163400
X54300Y-165940
X54410Y-97500
X56950Y-97500
X57680Y-108200
X57680Y-110740
X59490Y-97500
X60220Y-108200
X60220Y-110740
X62030Y-97500
X62760Y-108200
X62760Y-110740
X64570Y-97500
X65300Y-108200
X65300Y-110740
X66990Y-163410
X66990Y-165950
X67110Y-97500
X67840Y-108200
X67840Y-110740
X69530Y-163410
X69530Y-165950
X69650Y-97500
X72070Y-163410
X72070Y-165950
X72190Y-97500
X74610Y-163410
X74610Y-165950
X74730Y-97500
X77150Y-163410
X77150Y-165950
X77250Y-110090
X77270Y-97500
X79750Y-107590
X79810Y-97500
X82250Y-110090
T6
X39750Y-124900
X42290Y-124900
X48920Y-124900
X51460Y-124900
X54000Y-124900
X56540Y-124900
X59080Y-124900
X61620Y-124900
X67960Y-124900
X70500Y-124900
X73040Y-124900
X79730Y-124900
X82270Y-124900
X88250Y-132150
X88250Y-134690
X88250Y-137230
X88250Y-139770
X88250Y-142310
X88250Y-144850
X88250Y-150685
X88250Y-153225
X88250Y-155765
X88250Y-158305
T7
X31000Y-122500
X31000Y-167500
X91000Y-122500
X91000Y-167500
T8
X42510Y-116500
X42510Y-118000
X43260Y-116500
X43260Y-118000
X44010Y-116500
X44010Y-118000
X78010Y-116500
X78010Y-118000
X78760Y-116500
X78760Y-118000
X79510Y-116500
X79510Y-118000
T0
M30
